HIERARCHY
ROOT Hips
{
	OFFSET 0.000000 0.000000 0.000000 
	CHANNELS 6 Xposition Yposition Zposition Yrotation Zrotation Xrotation 
	JOINT Lumbar
	{
		OFFSET 0.000000 0.000000 0.000000 
		CHANNELS 3 Zrotation Xrotation Yrotation
		JOINT Neck
		{
			OFFSET 0.000000 0.445665 0.000000 
			CHANNELS 3 Zrotation Xrotation Yrotation
			End Site
			{
				OFFSET 0.000000 0.227535 0.000000 
			}
		}
		JOINT RightShoulder
		{
			OFFSET 0.019635 0.377685 0.194865 
			CHANNELS 3 Zrotation Xrotation Yrotation
			JOINT RightElbow
			{
				OFFSET 0.000000 -0.243375 0.000000 
				CHANNELS 2 Zrotation Yrotation
				JOINT RightWrist
				{
					OFFSET 0.000000 -0.264825 0.000000 
					CHANNELS 2 Zrotation Xrotation
					End Site
					{
						OFFSET 0.006600 -0.176220 0.000990 
					}
				}
			}
		}
		JOINT LeftShoulder
		{
			OFFSET 0.019635 0.377685 -0.194865 
			CHANNELS 3 Zrotation Xrotation Yrotation
			JOINT LeftElbow
			{
				OFFSET 0.000000 -0.243375 0.000000 
				CHANNELS 2 Zrotation Yrotation
				JOINT LeftWrist
				{
					OFFSET 0.000000 -0.264825 0.000000 
					CHANNELS 2 Zrotation Xrotation
					End Site
					{
						OFFSET 0.006600 -0.176220 -0.000990 
					}
				}
			}
		}
	}
	JOINT RightHip
	{
		OFFSET 0.052140 -0.069960 0.075570 
		CHANNELS 3 Zrotation Xrotation Yrotation
		JOINT RightKnee
		{
			OFFSET 0.000000 -0.402270 0.000000 
			CHANNELS 1 Zrotation
			JOINT RightAnkle
			{
				OFFSET 0.000000 -0.404085 0.000000 
				CHANNELS 3 Zrotation Xrotation Yrotation
				End Site
				{
					OFFSET 0.204105 -0.089430 0.008415 
				}
			}
		}
	}
	JOINT LeftHip
	{
		OFFSET 0.052140 -0.069960 -0.075570 
		CHANNELS 3 Zrotation Xrotation Yrotation
		JOINT LeftKnee
		{
			OFFSET 0.000000 -0.402270 0.000000 
			CHANNELS 1 Zrotation
			JOINT LeftAnkle
			{
				OFFSET 0.000000 -0.404085 0.000000 
				CHANNELS 3 Zrotation Xrotation Yrotation
				End Site
				{
					OFFSET 0.204105 -0.089430 -0.008415 
				}
			}
		}
	}
}
MOTION
Frames: 20
Frame Time: 0.02
0 0.95578 -0 178.33052 0 -4.18152 4.20607 3.95994 -1.33939 -24.57548 4.81194 5.34034 8.16228 -71.0702 -87.14612 17.84268 62.19436 -20.06502 0.6926 37.2686 64.59744 52.66751 18.96354 -93.40978 -20.2639 5.66077 0.93047 7.57598 -6.3459 -11.09021 4.90314 -5.07066 -10.21063 -0.51443 2.43972 2.96869 -6.14936 4.894 4.62315 8.16204
9e-05 0.95578 3e-05 178.22393 0 -4.18148 4.29035 3.93593 -1.29646 -24.52931 4.79443 5.37655 8.07837 -71.03516 -87.14623 17.73292 62.19806 -20.14476 0.70215 36.86907 64.636 52.99042 18.94982 -93.13768 -20.11972 5.63905 0.9458 7.67576 -5.17189 -11.0857 4.88109 -4.98743 -11.26276 -0.53283 2.43311 3.01094 -6.12586 4.8909 4.62153 8.20961
0.00017 0.95577 7e-05 178.11804 0 -4.18143 4.37438 3.91216 -1.25388 -24.48333 4.77683 5.41214 7.99358 -70.99998 -87.14633 17.62406 62.20113 -20.2249 0.71152 36.46947 64.67529 53.31479 18.93554 -92.86783 -19.97721 5.61705 0.96073 7.77424 -4.01181 -11.08093 4.85873 -4.90511 -12.30162 -0.55124 2.42649 3.05302 -6.1025 4.88792 4.61995 8.25676
0.00024 0.95576 0.0001 178.01397 0 -4.18124 4.45801 3.88889 -1.21229 -24.43712 4.75867 5.44545 7.9072 -70.96344 -87.14644 17.51772 62.20327 -20.30671 0.71999 36.06646 64.71816 53.64751 18.91845 -92.60584 -19.83997 5.59349 0.97432 7.86818 -2.89937 -11.0752 4.83532 -4.82606 -13.29395 -0.56993 2.41985 3.09498 -6.07922 4.88519 4.61847 8.30239
0.00036 0.95575 0.00013 177.90032 0 -4.18169 4.54349 3.86268 -1.16546 -24.39143 4.74344 5.49068 7.83251 -70.93357 -87.14656 17.39808 62.21218 -20.3788 0.73292 35.68236 64.7424 53.93528 18.9157 -92.30402 -19.67482 5.57797 0.99517 7.98577 -1.53858 -11.07474 4.81797 -4.73022 -14.52831 -0.58719 2.41336 3.13778 -6.05523 4.88093 4.61637 8.35572
0.00038 0.95574 0.00017 177.80701 0 -4.18084 4.62514 3.84289 -1.12976 -24.34517 4.72209 5.51077 7.73094 -70.88999 -87.14665 17.30666 62.20552 -20.47198 0.7366 35.25808 64.80579 54.31833 18.883 -92.08553 -19.56888 5.5456 1.00053 8.05348 -0.70168 -11.063 4.78749 -4.66962 -15.25257 -0.60746 2.40653 3.17863 -6.03297 4.88005 4.61566 8.39293
0.00012 0.95572 0.00019 177.7697 0 -4.17605 4.69683 3.83944 -1.12513 -24.29215 4.68207 5.45836 7.56969 -70.80269 -87.14668 17.29371 62.16535 -20.62282 0.71216 34.71229 64.98492 54.98046 18.76062 -92.10986 -19.62944 5.4628 0.96273 7.97804 -1.36562 -11.01956 4.72128 -4.71138 -14.51001 -0.63699 2.39885 3.21614 -6.01313 4.88744 4.61835 8.38319
-0.00024 0.9557 0.00021 177.75293 0 -4.17003 4.76465 3.84272 -1.13168 -24.23967 4.6362 5.38107 7.37933 -70.70254 -87.14669 17.30914 62.10815 -20.79506 0.67878 34.12774 65.20227 55.7363 18.6092 -92.21611 -19.74925 5.36365 0.90929 7.85313 -2.54961 -10.96472 4.6417 -4.78782 -13.262 -0.66946 2.39079 3.25141 -5.99539 4.89842 4.62252 8.35754
-0.00056 0.95567 0.00024 177.72682 0 -4.16481 4.83391 3.84382 -1.13287 -24.18996 4.59408 5.31709 7.19146 -70.61193 -87.14671 17.31123 62.05194 -20.9583 0.65119 33.56651 65.39759 56.44011 18.47541 -92.27653 -19.84019 5.27433 0.8633 7.75429 -3.4609 -10.91547 4.56775 -4.84515 -12.28256 -0.69997 2.38282 3.28636 -5.97831 4.90848 4.62634 8.34085
-0.00087 0.95565 0.00025 177.70066 0 -4.15858 4.9044 3.84119 -1.1352 -24.12664 4.54723 5.24468 7.04527 -70.50566 -87.14673 17.3152 62.02231 -21.11915 0.61649 32.97936 65.61303 57.18487 18.32281 -92.37282 -19.93959 5.17468 0.8161 7.64037 -4.52407 -10.86478 4.49548 -4.91661 -11.1406 -0.73297 2.37518 3.32671 -5.95473 4.9156 4.62888 8.31717
-0.00123 0.95562 0.0003 177.6796 0 -4.15417 4.97153 3.84794 -1.13787 -24.09289 4.50901 5.18392 6.80996 -70.42904 -87.14674 17.32202 61.9357 -21.28917 0.59422 32.43937 65.79502 57.86512 18.20267 -92.41439 -20.03509 5.0929 0.76743 7.54601 -5.39637 -10.81402 4.4168 -4.96689 -10.21525 -0.76169 2.36681 3.35558 -5.9448 4.92961 4.63436 8.30385
-0.00172 0.95559 0.00045 177.66646 0 -4.15498 5.02946 3.87891 -1.13829 -24.13113 4.49457 5.16138 6.29654 -70.4363 -87.14672 17.3296 61.67607 -21.48676 0.61058 32.01838 65.88061 58.35683 18.17766 -92.28109 -20.10904 5.06239 0.72073 7.51866 -5.5975 -10.76879 4.3213 -4.95015 -10.0277 -0.77592 2.35619 3.35069 -5.97532 4.96274 4.64837 8.32679
-0.00227 0.95555 0.00064 177.65791 0 -4.15767 5.08426 3.91909 -1.13873 -24.20078 4.48922 5.15143 5.70205 -70.47381 -87.14662 17.33923 61.36398 -21.69116 0.63928 31.65004 65.9302 58.77781 18.18664 -92.09127 -20.17674 5.05074 0.6727 7.51255 -5.59151 -10.72337 4.22025 -4.91094 -10.07274 -0.78607 2.34491 3.33474 -6.01893 5.00253 4.66518 8.36013
-0.0028 0.95552 0.00081 177.64803 0 -4.15958 5.14113 3.95509 -1.13949 -24.26244 4.48079 5.13578 5.16994 -70.49855 -87.14666 17.34787 61.0882 -21.88795 0.66104 31.27114 65.9928 59.22328 18.18107 -91.92887 -20.24437 5.0319 0.6238 7.4961 -5.69172 -10.67604 4.12331 -4.88198 -10.00056 -0.79938 2.33414 3.32569 -6.05436 5.03864 4.68021 8.38608
-0.00331 0.95549 0.00099 177.63582 0 -4.16115 5.19534 3.99132 -1.13932 -24.29801 4.46802 5.11923 4.52773 -70.51979 -87.14658 17.3572 60.75681 -22.10578 0.68843 30.8344 66.07094 59.70535 18.17061 -91.75915 -20.32471 5.00695 0.58046 7.48075 -5.76008 -10.63654 4.01918 -4.85389 -9.9587 -0.80738 2.32247 3.30898 -6.09917 5.07758 4.69737 8.4222
-0.00386 0.95545 0.00117 177.62911 0 -4.16389 5.25415 4.02918 -1.14087 -24.39482 4.46615 5.10781 4.09754 -70.55433 -87.14635 17.36588 60.53201 -22.27961 0.70671 30.53122 66.1076 60.09191 18.1789 -91.59377 -20.3784 4.99906 0.52557 7.46887 -5.83761 -10.58105 3.92889 -4.81844 -9.91637 -0.82532 2.31251 3.30518 -6.12769 5.11224 4.71079 8.44043
-0.00447 0.95543 0.00134 177.63786 0 -4.1694 5.32825 4.0692 -1.14769 -24.6575 4.49495 5.10802 4.25985 -70.62799 -87.14699 17.36708 60.59143 -22.34343 0.70004 30.58225 66.03777 60.24098 18.2311 -91.42266 -20.34389 5.03654 0.43821 7.46101 -5.99898 -10.48009 3.87817 -4.76587 -9.8108 -0.87255 2.30752 3.34272 -6.10638 5.1325 4.71289 8.40228
-0.0051 0.9554 0.00152 177.65161 0 -4.17598 5.40664 4.1105 -1.15613 -24.97956 4.53368 5.11294 4.64109 -70.71113 -87.146 17.3688 60.76612 -22.36046 0.68283 30.76554 65.92662 60.29334 18.30186 -91.26292 -20.28692 5.09003 0.33967 7.4562 -6.17267 -10.36358 3.84175 -4.70697 -9.70018 -0.92973 2.30421 3.39253 -6.06847 5.14832 4.7113 8.34726
-0.00572 0.95538 0.00169 177.66207 0 -4.1821 5.48201 4.15129 -1.16333 -25.27197 4.5663 5.11557 4.93036 -70.785 -87.14649 17.37299 60.90087 -22.38981 0.66882 30.89063 65.83567 60.38479 18.36296 -91.1188 -20.24868 5.13443 0.24675 7.45055 -6.33298 -10.25482 3.79868 -4.65228 -9.59772 -0.98177 2.30015 3.4355 -6.0393 5.16681 4.71147 8.30218
-0.00635 0.95536 0.00187 177.67705 0 -4.18832 5.56223 4.19226 -1.17245 -25.57815 4.60683 5.1195 5.1841 -70.88543 -87.14892 17.36407 60.9738 -22.45599 0.6635 31.01293 65.74064 60.49806 18.42712 -90.88679 -20.16838 5.18732 0.1509 7.44349 -6.51923 -10.1422 3.75553 -4.59107 -9.47836 -1.03628 2.29623 3.48573 -6.00575 5.18294 4.71091 8.24543
